<svg xmlns="http://www.w3.org/2000/svg" width="361" height="369" viewBox="0 0 361 369"><rect width="100%" height="100%" fill="#908c8f"/><path fill="#ffff" d="m77.555 177.375-3.12-.55q.36-2.5 1.39-4.38 1.03-1.89 2.58-3.15t3.55-1.89q2.01-.64 4.31-.64 2.4 0 4.33.69 1.93.68 3.3 1.89 1.37 1.21 2.1 2.85.73 1.63.73 3.52 0 1.66-.37 2.92t-1.07 2.2q-.69.93-1.72 1.58-1.04.65-2.33 1.08 3.12.98 4.65 3 1.54 2.02 1.54 5.06 0 2.6-.96 4.59-.96 1.99-2.59 3.35-1.63 1.35-3.78 2.05-2.15.69-4.55.69-2.62 0-4.56-.6-1.94-.6-3.38-1.77-1.44-1.18-2.45-2.88-1.01-1.71-1.73-3.94l2.62-1.08q1.03-.43 1.93-.23.9.21 1.31.98.43.84.94 1.65.52.82 1.24 1.45.72.64 1.69 1.04.97.39 2.32.39 1.51 0 2.64-.49 1.13-.49 1.88-1.28.76-.8 1.13-1.77.37-.97.37-1.95 0-1.25-.26-2.27-.27-1.02-1.11-1.74-.84-.72-2.41-1.13-1.57-.41-4.21-.41v-4.22q2.18-.03 3.62-.41t2.3-1.07q.85-.68 1.18-1.64.34-.96.34-2.11 0-2.45-1.37-3.72-1.37-1.28-3.65-1.28-1.05 0-1.94.3-.89.3-1.6.84-.7.54-1.18 1.26t-.72 1.59q-.41 1.1-1.07 1.46-.66.36-1.86.17Zm44.95-10.22-10.3 12.6-1.2 1.48q1.01-.5 2.18-.78 1.16-.27 2.5-.27 1.97 0 3.83.65 1.86.64 3.28 1.95 1.41 1.31 2.28 3.25.86 1.95.86 4.54 0 2.42-.89 4.55-.88 2.12-2.49 3.71-1.61 1.58-3.88 2.49-2.27.91-5 .91-2.79 0-4.99-.88-2.21-.89-3.77-2.49-1.56-1.59-2.39-3.84-.83-2.24-.83-4.98 0-2.45 1-5.03.99-2.58 3.08-5.36l8.28-11.11q.43-.58 1.26-.99.83-.4 1.91-.4h5.28Zm-8.95 30.24q1.41 0 2.6-.48 1.19-.48 2.04-1.35.85-.86 1.33-2.03.48-1.16.48-2.53 0-1.49-.45-2.67-.46-1.19-1.3-2.02-.84-.83-2.01-1.26-1.18-.43-2.6-.43-1.41 0-2.56.48-1.16.48-1.97 1.33-.82.85-1.27 2.02-.46 1.16-.46 2.5 0 1.44.4 2.63.39 1.19 1.17 2.03.78.84 1.93 1.31 1.16.47 2.67.47Zm32.57.02h6.24v4.44h-19.2v-4.44h7.03v-20.23q0-1.2.07-2.47l-4.99 4.17q-.43.34-.85.42-.42.09-.8.01-.37-.07-.66-.25-.28-.18-.43-.39l-1.87-2.57 10.58-9h4.88v30.31Zm46.15-3.5-3.15 3.09-8.13-8.13-8.21 8.18-3.14-3.1 8.2-8.23-7.82-7.82 3.12-3.12 7.82 7.82 7.78-7.77 3.17 3.12-7.8 7.8 8.16 8.16Zm19.97-16.54-3.12-.55q.36-2.5 1.39-4.38 1.03-1.89 2.58-3.15t3.55-1.89q2-.64 4.31-.64 2.4 0 4.33.69 1.93.68 3.3 1.89 1.37 1.21 2.1 2.85.73 1.63.73 3.52 0 1.66-.37 2.92t-1.07 2.2q-.69.93-1.73 1.58-1.03.65-2.32 1.08 3.12.98 4.65 3 1.54 2.02 1.54 5.06 0 2.6-.96 4.59-.96 1.99-2.59 3.35-1.64 1.35-3.78 2.05-2.15.69-4.55.69-2.62 0-4.56-.6-1.95-.6-3.39-1.77-1.44-1.18-2.44-2.88-1.01-1.71-1.73-3.94l2.61-1.08q1.04-.43 1.94-.23.9.21 1.3.98.44.84.95 1.65.52.82 1.24 1.45.72.64 1.69 1.04.97.39 2.32.39 1.51 0 2.64-.49 1.12-.49 1.88-1.28.76-.8 1.13-1.77.37-.97.37-1.95 0-1.25-.26-2.27-.27-1.02-1.11-1.74-.84-.72-2.41-1.13-1.57-.41-4.21-.41v-4.22q2.18-.03 3.62-.41t2.29-1.07q.86-.68 1.19-1.64.34-.96.34-2.11 0-2.45-1.37-3.72-1.37-1.28-3.65-1.28-1.05 0-1.94.3-.89.3-1.6.84-.71.54-1.19 1.26t-.72 1.59q-.4 1.1-1.06 1.46-.66.36-1.86.17Zm44.95-10.22-10.3 12.6-1.2 1.48q1.01-.5 2.17-.78 1.17-.27 2.51-.27 1.97 0 3.83.65 1.86.64 3.28 1.95 1.41 1.31 2.28 3.25.86 1.95.86 4.54 0 2.42-.89 4.55-.89 2.12-2.49 3.71-1.61 1.58-3.88 2.49-2.27.91-5 .91-2.79 0-5-.88-2.2-.89-3.76-2.49-1.56-1.59-2.39-3.84-.83-2.24-.83-4.98 0-2.45 1-5.03.99-2.58 3.08-5.36l8.28-11.11q.43-.58 1.26-.99.83-.4 1.91-.4h5.28Zm-8.95 30.24q1.41 0 2.6-.48 1.19-.48 2.04-1.35.85-.86 1.33-2.03.48-1.16.48-2.53 0-1.49-.45-2.67-.46-1.19-1.3-2.02-.84-.83-2.02-1.26-1.17-.43-2.59-.43-1.41 0-2.57.48-1.15.48-1.96 1.33-.82.85-1.28 2.02-.45 1.16-.45 2.5 0 1.44.39 2.63.4 1.19 1.18 2.03.78.84 1.93 1.31 1.15.47 2.67.47Zm21.88-19.83q0 2.91 1.5 4.43 1.5 1.52 4.26 1.52 1.44 0 2.57-.45 1.13-.46 1.9-1.25t1.16-1.87q.4-1.08.4-2.33 0-1.42-.43-2.53-.44-1.12-1.23-1.89-.79-.76-1.88-1.17-1.09-.41-2.39-.41-1.34 0-2.42.44-1.08.45-1.85 1.24t-1.18 1.88q-.41 1.1-.41 2.39Zm-2.9 24.29 10.78-13.46q.4-.51.76-.99t.7-.96q-1.2.77-2.64 1.17-1.44.39-3.02.39-1.8 0-3.53-.62-1.73-.63-3.07-1.89-1.35-1.26-2.18-3.12-.82-1.86-.82-4.35 0-2.33.86-4.37t2.42-3.58q1.56-1.53 3.75-2.42 2.18-.89 4.82-.89 2.67 0 4.79.84t3.62 2.35q1.5 1.52 2.31 3.63.8 2.11.8 4.63 0 1.61-.27 3.05-.28 1.44-.78 2.77-.51 1.33-1.23 2.6-.72 1.28-1.61 2.52l-7.94 11.33q-.41.58-1.22.97-.82.4-1.85.4h-5.45Z"/></svg>